<svg xmlns="http://www.w3.org/2000/svg" width="512" height="512" viewBox="0 0 64 64">
  <rect width="64" height="64" rx="14" fill="#fff7e6"/>
  <g transform="rotate(0.0 32 32)"><ellipse cx="32" cy="12" rx="4.2" ry="10" fill="#f5a623"/><ellipse cx="32" cy="10.5" rx="2.4" ry="7" fill="#ffce4d"/></g><g transform="rotate(25.714285714285715 32 32)"><ellipse cx="32" cy="12" rx="4.2" ry="10" fill="#f5a623"/><ellipse cx="32" cy="10.5" rx="2.4" ry="7" fill="#ffce4d"/></g><g transform="rotate(51.42857142857143 32 32)"><ellipse cx="32" cy="12" rx="4.2" ry="10" fill="#f5a623"/><ellipse cx="32" cy="10.5" rx="2.4" ry="7" fill="#ffce4d"/></g><g transform="rotate(77.14285714285714 32 32)"><ellipse cx="32" cy="12" rx="4.2" ry="10" fill="#f5a623"/><ellipse cx="32" cy="10.5" rx="2.4" ry="7" fill="#ffce4d"/></g><g transform="rotate(102.85714285714286 32 32)"><ellipse cx="32" cy="12" rx="4.2" ry="10" fill="#f5a623"/><ellipse cx="32" cy="10.5" rx="2.4" ry="7" fill="#ffce4d"/></g><g transform="rotate(128.57142857142858 32 32)"><ellipse cx="32" cy="12" rx="4.2" ry="10" fill="#f5a623"/><ellipse cx="32" cy="10.5" rx="2.4" ry="7" fill="#ffce4d"/></g><g transform="rotate(154.28571428571428 32 32)"><ellipse cx="32" cy="12" rx="4.2" ry="10" fill="#f5a623"/><ellipse cx="32" cy="10.5" rx="2.4" ry="7" fill="#ffce4d"/></g><g transform="rotate(180.0 32 32)"><ellipse cx="32" cy="12" rx="4.2" ry="10" fill="#f5a623"/><ellipse cx="32" cy="10.5" rx="2.4" ry="7" fill="#ffce4d"/></g><g transform="rotate(205.71428571428572 32 32)"><ellipse cx="32" cy="12" rx="4.2" ry="10" fill="#f5a623"/><ellipse cx="32" cy="10.5" rx="2.4" ry="7" fill="#ffce4d"/></g><g transform="rotate(231.42857142857144 32 32)"><ellipse cx="32" cy="12" rx="4.2" ry="10" fill="#f5a623"/><ellipse cx="32" cy="10.5" rx="2.4" ry="7" fill="#ffce4d"/></g><g transform="rotate(257.14285714285717 32 32)"><ellipse cx="32" cy="12" rx="4.2" ry="10" fill="#f5a623"/><ellipse cx="32" cy="10.5" rx="2.4" ry="7" fill="#ffce4d"/></g><g transform="rotate(282.8571428571429 32 32)"><ellipse cx="32" cy="12" rx="4.2" ry="10" fill="#f5a623"/><ellipse cx="32" cy="10.5" rx="2.4" ry="7" fill="#ffce4d"/></g><g transform="rotate(308.57142857142856 32 32)"><ellipse cx="32" cy="12" rx="4.2" ry="10" fill="#f5a623"/><ellipse cx="32" cy="10.5" rx="2.4" ry="7" fill="#ffce4d"/></g><g transform="rotate(334.2857142857143 32 32)"><ellipse cx="32" cy="12" rx="4.2" ry="10" fill="#f5a623"/><ellipse cx="32" cy="10.5" rx="2.4" ry="7" fill="#ffce4d"/></g>
  <circle cx="32" cy="32" r="12.5" fill="#7a4a12"/>
  <circle cx="32" cy="32" r="12.5" fill="none" stroke="#5a3410" stroke-width="1.2"/>
  <g fill="#4a2f12" opacity="0.85">
    <circle cx="28" cy="29" r="1.1"/><circle cx="33" cy="28" r="1.1"/><circle cx="37" cy="31" r="1.1"/>
    <circle cx="30" cy="33" r="1.1"/><circle cx="35" cy="34" r="1.1"/><circle cx="31" cy="37" r="1.1"/>
    <circle cx="36" cy="37" r="1.1"/><circle cx="27" cy="34" r="1.1"/>
  </g>
</svg>